<svg xmlns="http://www.w3.org/2000/svg" width="24" height="24" viewBox="0 0 24 24" fill="none" stroke="#212529" stroke-width="1" stroke-linecap="round" stroke-linejoin="round">
    <path d="M3 19V5a2 2 0 0 1 2-2h14a1 1 0 0 1 1 1v15a1 1 0 0 1-1 1H15" />
    <path d="M9 21H5a2 2 0 0 1-2-2" />

    <line x1="6" y1="3" x2="6" y2="21" />

    <line x1="12" y1="22" x2="12" y2="14" />
    <path d="M9 17l3-3 3 3" />

    <line x1="9" y1="7" x2="16" y2="7" />
    <line x1="9" y1="10" x2="16" y2="10" />
</svg>